<?xml version="1.0" encoding="UTF-8" standalone="no"?>
<!-- Created with Inkscape (http://www.inkscape.org/) -->

<svg
   width="4.8081045mm"
   height="6.5777669mm"
   viewBox="0 0 4.8081045 6.5777669"
   version="1.1"
   id="svg1"
   xmlns="http://www.w3.org/2000/svg"
   xmlns:svg="http://www.w3.org/2000/svg">
  <defs
     id="defs1" />
  <g
     id="layer1"
     transform="translate(-103.6178,-57.568345)">
    <path
       style="color:#000000;fill:#000000;stroke-width:0.2;stroke-linejoin:round;stroke-dasharray:none"
       d="m 103.71897,58.277135 a 0.10044123,0.10044123 0 0 0 -0.0994,0.09939 v 3.896939 a 0.10044123,0.10044123 0 0 0 0.0994,0.101998 h 3.89695 a 0.10044123,0.10044123 0 0 0 0.0994,-0.101998 v -3.896939 a 0.10044123,0.10044123 0 0 0 -0.0994,-0.09939 z m 0.0994,0.201386 h 3.69817 v 3.695553 h -3.69817 z"
       id="rect1" />
    <rect
       style="fill:none;stroke:#000000;stroke-width:0.2;stroke-dasharray:none"
       id="rect2"
       width="2.8343844"
       height="2.8343964"
       x="104.2412"
       y="58.916355" />
    <path
       style="fill:none;stroke:#000000;stroke-width:0.2;stroke-linecap:round;stroke-linejoin:round;stroke-dasharray:none;stroke-opacity:1"
       d="m 107.61617,62.983216 0.70859,-0.708598 v 1.062897 l -0.70859,0.708598"
       id="path5" />
    <path
       style="fill:none;stroke:#000000;stroke-width:0.2;stroke-linecap:butt;stroke-linejoin:round;stroke-dasharray:none;stroke-opacity:1"
       d="m 107.61617,62.274614 0.70859,-0.708594 v -3.897289 l -0.70859,0.708599 z"
       id="path6" />
    <path
       style="color:#000000;fill:#000000;stroke-width:0.2;stroke-linecap:round;stroke-linejoin:round;stroke-dasharray:none"
       d="m 104.42775,57.568363 a 0.10044123,0.10044123 0 0 0 -0.0706,0.02876 l -0.70876,0.708772 a 0.10044123,0.10044123 0 0 0 0.0706,0.172616 h 3.89694 a 0.10044123,0.10044123 0 0 0 0.0706,-0.03139 l 0.70878,-0.706156 a 0.10044123,0.10044123 0 0 0 -0.0706,-0.172617 z m 0.0418,0.201386 h 3.61185 l -0.50738,0.507386 h -3.61447 z"
       id="path7" />
    <path
       style="fill:none;stroke:#000000;stroke-width:0.2;stroke-linecap:round;stroke-linejoin:miter;stroke-dasharray:none;stroke-opacity:1"
       d="m 103.71888,62.983218 0.7086,-0.7086"
       id="path9" />
    <path
       style="color:#000000;fill:#000000;stroke-width:0.2;stroke-linecap:round;stroke-linejoin:round;stroke-dasharray:none"
       d="m 103.71897,62.882847 a 0.10044123,0.10044123 0 0 0 -0.0994,0.09939 V 64.0467 a 0.10044123,0.10044123 0 0 0 0.0994,0.09939 h 3.89695 a 0.10044123,0.10044123 0 0 0 0.10204,-0.09939 v -1.064467 a 0.10044123,0.10044123 0 0 0 -0.10204,-0.09939 z m 0.0994,0.201386 h 3.69817 v 0.860465 h -3.69817 z"
       id="rect9" />
    <path
       style="fill:none;stroke:#000000;stroke-width:0.2;stroke-linecap:round;stroke-linejoin:round;stroke-dasharray:none;stroke-opacity:1"
       d="m 108.32476,62.274618 h -0.70859"
       id="path10" />
    <path
       style="fill:none;stroke:#000000;stroke-width:0.2;stroke-linecap:round;stroke-linejoin:round;stroke-dasharray:none;stroke-opacity:1"
       d="m 105.13607,62.274618 v 0.354299 h 1.41251 l -0.009,-0.354299 h -1.40293"
       id="path11" />
    <path
       style="fill:none;stroke:#000000;stroke-width:0.2;stroke-linecap:round;stroke-linejoin:round;stroke-dasharray:none;stroke-opacity:1"
       d="m 106.54693,62.628917 0.34868,-0.354299"
       id="path12" />
    <path
       style="fill:none;stroke:#000000;stroke-width:0.2;stroke-linecap:round;stroke-linejoin:miter;stroke-dasharray:none;stroke-opacity:1"
       d="m 104.07317,63.514467 h 1.57187"
       id="path13" />
    <circle
       style="fill:#000000;stroke:none;stroke-width:0.2;stroke-linecap:round;stroke-linejoin:round;stroke-dasharray:none;paint-order:normal"
       id="path14"
       cx="106.01269"
       cy="63.522243"
       r="0.10043119" />
    <circle
       style="fill:#000000;stroke:none;stroke-width:0.2;stroke-linecap:round;stroke-linejoin:round;stroke-dasharray:none;paint-order:normal"
       id="circle14"
       cx="106.36698"
       cy="63.522243"
       r="0.10043119" />
    <circle
       style="fill:#000000;stroke:none;stroke-width:0.2;stroke-linecap:round;stroke-linejoin:round;stroke-dasharray:none;paint-order:normal"
       id="circle15"
       cx="106.72128"
       cy="63.522243"
       r="0.10043119" />
    <circle
       style="fill:#000000;stroke:none;stroke-width:0.2;stroke-linecap:round;stroke-linejoin:round;stroke-dasharray:none;paint-order:normal"
       id="circle16"
       cx="107.07557"
       cy="63.522243"
       r="0.10043119" />
  </g>
</svg>
