<?xml version="1.0" encoding="UTF-8" standalone="no"?>
<!-- Created with Inkscape (http://www.inkscape.org/) -->

<svg
   width="7.162014mm"
   height="7.1620107mm"
   viewBox="0 0 7.162014 7.1620107"
   version="1.1"
   id="svg1"
   inkscape:version="1.3 (1:1.3+202307231459+0e150ed6c4)"
   sodipodi:docname="logo_sketch.svg"
   inkscape:export-filename="jc_logo_export.svg"
   inkscape:export-xdpi="96"
   inkscape:export-ydpi="96"
   xmlns:inkscape="http://www.inkscape.org/namespaces/inkscape"
   xmlns:sodipodi="http://sodipodi.sourceforge.net/DTD/sodipodi-0.dtd"
   xmlns="http://www.w3.org/2000/svg"
   xmlns:svg="http://www.w3.org/2000/svg">
  <sodipodi:namedview
     id="namedview1"
     pagecolor="#505050"
     bordercolor="#eeeeee"
     borderopacity="1"
     inkscape:showpageshadow="0"
     inkscape:pageopacity="0"
     inkscape:pagecheckerboard="true"
     inkscape:deskcolor="#d1d1d1"
     inkscape:document-units="mm"
     showgrid="true"
     inkscape:zoom="11.313709"
     inkscape:cx="156.57996"
     inkscape:cy="67.572892"
     inkscape:window-width="1920"
     inkscape:window-height="1016"
     inkscape:window-x="0"
     inkscape:window-y="27"
     inkscape:window-maximized="1"
     inkscape:current-layer="layer1"
     showguides="true">
    <inkscape:grid
       id="grid16"
       units="mm"
       originx="-165.46547"
       originy="-44.465489"
       spacingx="0.26458333"
       spacingy="0.26458334"
       empcolor="#0099e5"
       empopacity="0.30196078"
       color="#0099e5"
       opacity="0.14901961"
       empspacing="5"
       dotted="false"
       gridanglex="30"
       gridanglez="30"
       visible="true" />
  </sodipodi:namedview>
  <defs
     id="defs1" />
  <g
     inkscape:label="Layer 1"
     inkscape:groupmode="layer"
     id="layer1"
     transform="translate(-113.46691,-54.994009)">
    <path
       style="fill:none;stroke:#000000;stroke-width:0.2;stroke-linecap:round;stroke-linejoin:miter;stroke-dasharray:none;stroke-opacity:1"
       d="m 115.98958,56.458349 v 3.439583 c 0,0 -0.27971,0.529166 -0.52916,0.529167 -0.24945,1e-6 -0.52917,-0.279715 -0.52917,-0.529167 0,-0.249452 0.27972,-0.529167 0.52917,-0.529166 0.24945,10e-7 0.52916,0.529166 0.52916,0.529166 0,0 0.28481,0.479011 0.52917,0.529167 0.46524,0.09549 0.85768,-0.624662 1.32292,-0.529166 0.24436,0.05016 0.52916,0.529166 0.52916,0.529166"
       id="path16"
       sodipodi:nodetypes="ccssscssc" />
    <path
       style="fill:none;stroke:#000000;stroke-width:0.2;stroke-linecap:round;stroke-linejoin:miter;stroke-dasharray:none;stroke-opacity:1"
       d="m 117.57708,59.368766 c 1e-5,-1.151502 0,-2.292056 0,-2.381251 0,-0.08297 -0.27971,-0.529165 -0.52916,-0.529166 -0.24945,-10e-7 -0.52917,0.279714 -0.52917,0.529166 0,0.249452 0.27972,0.529168 0.52917,0.529167 0.24945,-1e-6 0.52916,-0.529167 0.52916,-0.529167 0,0 0.27972,-0.529166 0.52917,-0.529166 0.24945,0 0.43371,0.159886 0.52917,0.39035 0.10125,0.244443 0.10125,0.688123 0,0.932566 -0.0955,0.230464 -0.18022,0.319015 -0.26459,0.374551 -0.0844,0.05554 -0.26915,0.150382 -0.434,-0.01447"
       id="path17"
       sodipodi:nodetypes="cssssczsszc" />
    <path
       style="fill:none;stroke:#000000;stroke-width:0.2;stroke-linecap:round;stroke-linejoin:miter;stroke-dasharray:none;stroke-opacity:1"
       d="m 114.66667,59.104182 -1.05834,-1.058333 2.91042,-2.910417 1.05833,1.058334"
       id="path18"
       sodipodi:nodetypes="cccc" />
    <path
       style="fill:none;stroke:#000000;stroke-width:0.2;stroke-linecap:round;stroke-linejoin:miter;stroke-dasharray:none;stroke-opacity:1"
       d="m 119.16458,57.781266 1.32292,1.322917 -2.91042,2.910416 -1.05833,-1.058333"
       id="path19"
       sodipodi:nodetypes="cccc" />
  </g>
</svg>
