<?xml version="1.0" encoding="UTF-8" standalone="no"?>
<!-- Created with Inkscape (http://www.inkscape.org/) -->

<svg
   width="63.441036mm"
   height="63.441036mm"
   viewBox="0 0 63.441036 63.441036"
   version="1.1"
   id="svg1"
   inkscape:version="1.3 (1:1.3+202307231459+0e150ed6c4)"
   sodipodi:docname="logo_sketch.svg"
   inkscape:export-filename="jc_logo_export.svg"
   inkscape:export-xdpi="96"
   inkscape:export-ydpi="96"
   xmlns:inkscape="http://www.inkscape.org/namespaces/inkscape"
   xmlns:sodipodi="http://sodipodi.sourceforge.net/DTD/sodipodi-0.dtd"
   xmlns="http://www.w3.org/2000/svg"
   xmlns:svg="http://www.w3.org/2000/svg">
  <sodipodi:namedview
     id="namedview1"
     pagecolor="#505050"
     bordercolor="#eeeeee"
     borderopacity="1"
     inkscape:showpageshadow="0"
     inkscape:pageopacity="0"
     inkscape:pagecheckerboard="true"
     inkscape:deskcolor="#d1d1d1"
     inkscape:document-units="mm"
     showgrid="true"
     inkscape:zoom="16"
     inkscape:cx="260.84375"
     inkscape:cy="61.53125"
     inkscape:window-width="1920"
     inkscape:window-height="1016"
     inkscape:window-x="0"
     inkscape:window-y="27"
     inkscape:window-maximized="1"
     inkscape:current-layer="layer1"
     showguides="true">
    <inkscape:grid
       id="grid16"
       units="mm"
       originx="-155.11266"
       originy="-125.11013"
       spacingx="0.26458333"
       spacingy="0.26458334"
       empcolor="#0099e5"
       empopacity="0.30196078"
       color="#0099e5"
       opacity="0.14901961"
       empspacing="5"
       dotted="false"
       gridanglex="30"
       gridanglez="30"
       visible="true" />
  </sodipodi:namedview>
  <defs
     id="defs1" />
  <g
     inkscape:label="Layer 1"
     inkscape:groupmode="layer"
     id="layer1"
     transform="translate(-110.72773,-76.331237)">
    <path
       style="color:#000000;fill:none;stroke:#000000;stroke-width:0.2;stroke-linecap:round;stroke-dasharray:none"
       d="m 133.34375,88.414062 a 1.75,1.75 0 0 0 -1.75,1.75 v 23.224608 c -0.67486,-0.53917 -1.51303,-1.05273 -2.63477,-1.05273 -1.68241,-10e-6 -3.10769,0.82967 -4.20117,1.91406 -1.09347,1.08439 -1.93554,2.5008 -1.93554,4.18555 0,1.68474 0.84207,3.10115 1.93554,4.18554 1.09348,1.0844 2.51875,1.91407 4.20117,1.91407 1.13045,-1e-5 1.97484,-0.52072 2.65235,-1.06446 0.67751,-0.54374 1.22908,-1.17845 1.70117,-1.79101 0.0549,-0.0712 0.0391,-0.0698 0.0918,-0.14063 0.009,0.0112 0.007,0.0103 0.0156,0.0215 0.93361,1.14675 2.01152,2.54263 3.96094,2.93945 2.86477,0.58311 5.07834,-1.18714 6.85547,-2.4707 1.77713,-1.28357 3.11819,-2.08067 4.10937,-1.87891 0.0759,0.0154 1.19042,0.79389 1.94336,1.71875 0.75295,0.92486 1.29102,1.81641 1.29102,1.81641 a 1.75,1.75 0 0 0 2.40039,0.60156 1.75,1.75 0 0 0 0.60156,-2.40234 c 0,0 -0.64454,-1.07786 -1.57812,-2.22461 -0.93359,-1.14676 -2.01155,-2.54262 -3.96094,-2.93946 -2.86477,-0.58314 -5.07833,1.18714 -6.85547,2.47071 -1.77714,1.28356 -3.11624,2.08065 -4.10742,1.8789 -0.0758,-0.0154 -1.19235,-0.79388 -1.94531,-1.71875 -0.60806,-0.74687 -0.88379,-1.21567 -1.04102,-1.46679 V 90.164062 a 1.75,1.75 0 0 0 -1.75,-1.75 z m -4.38477,27.421878 c -0.0967,0 0.12231,0.0232 0.46094,0.29492 0.33864,0.27177 0.75519,0.72444 1.1211,1.19922 0.41992,0.54486 0.49832,0.73341 0.72265,1.10742 -0.22437,0.374 -0.30325,0.56127 -0.72265,1.10547 -0.36591,0.47478 -0.78246,0.92549 -1.1211,1.19726 -0.33863,0.27178 -0.55765,0.29493 -0.46094,0.29493 -0.38505,0 -1.15377,-0.32072 -1.73632,-0.89844 -0.58256,-0.57772 -0.90039,-1.3356 -0.90039,-1.70117 0,-0.36558 0.31783,-1.12346 0.90039,-1.70117 0.58255,-0.57772 1.35126,-0.89844 1.73632,-0.89844 z"
       id="path29" />
    <path
       style="color:#000000;fill:none;stroke:#000000;stroke-width:0.2;stroke-linecap:round;stroke-dasharray:none"
       d="m 142.11523,88.414062 c -1.68241,-6e-6 -3.10574,0.829674 -4.19921,1.914063 -1.09348,1.084389 -1.93555,2.500801 -1.93555,4.185547 0,1.684747 0.84207,3.103109 1.93555,4.1875 1.09347,1.084391 2.5168,1.912108 4.19921,1.912108 1.12176,0 1.96186,-0.51355 2.63672,-1.052733 2e-5,3.429493 6e-5,7.501373 0,14.525393 a 1.75,1.75 0 0 0 1.75,1.75 1.75,1.75 0 0 0 1.75,-1.75 c 4e-5,-4.27752 1e-5,-5.39437 0,-8.84571 1.03438,1.02581 2.44176,1.36925 3.50391,1.23243 1.06215,-0.13683 1.82388,-0.59215 2.28125,-0.89063 0.96323,-0.62877 1.9796,-1.78228 2.85156,-3.86914 1.12944,-2.704061 1.12944,-6.309612 0,-9.013671 -0.98888,-2.36766 -3.19291,-4.285157 -6.00195,-4.285157 -1.13045,0 -1.97483,0.522674 -2.65235,1.066407 -0.6525,0.52366 -1.17826,1.13319 -1.63867,1.724609 -0.066,-0.08326 -0.10035,-0.160945 -0.16992,-0.244141 -0.98291,-1.175387 -2.24206,-2.546866 -4.31055,-2.546875 z m 0,3.5 c -0.001,0 0.93387,0.464162 1.62696,1.292969 0.32571,0.389496 0.59972,0.800215 0.79297,1.13086 -0.21092,0.361227 -0.35123,0.651729 -0.83789,1.283203 -0.36591,0.474778 -0.78051,0.925493 -1.11915,1.197265 -0.33863,0.271773 -0.5596,0.294923 -0.46289,0.294922 -0.38505,0 -1.15181,-0.320718 -1.73437,-0.898437 -0.58256,-0.57772 -0.90039,-1.335592 -0.90039,-1.701172 0,-0.365572 0.31783,-1.123454 0.90039,-1.701172 0.58256,-0.577718 1.34932,-0.898439 1.73437,-0.898438 z m 8.77149,0 c 1.3259,0 2.17805,0.71197 2.77148,2.132813 0.54894,1.314237 0.54894,5.002163 0,6.316405 -0.71101,1.70166 -1.09984,2.0049 -1.53515,2.28906 v -0.002 c -0.24214,0.15802 -0.59456,0.32324 -0.81446,0.35156 -0.2199,0.0283 -0.26182,0.0831 -0.59375,-0.24609 a 1.75,1.75 0 0 0 -2.46289,0.01 c -1e-5,-2.57111 0,-7.276472 0,-7.742193 0.13676,-0.244918 0.44019,-0.820436 1.05274,-1.615234 0.36591,-0.474779 0.78245,-0.927445 1.12109,-1.199219 0.33864,-0.271773 0.55767,-0.294922 0.46094,-0.294922 z"
       id="path30" />
    <path
       style="color:#000000;fill:none;stroke:#000000;stroke-width:0.2;stroke-linecap:round;stroke-dasharray:none"
       d="m 137.15625,76.472656 -26.28711,26.287114 9.17383,9.17578 a 1.75,1.75 0 0 0 2.47656,0 1.75,1.75 0 0 0 0,-2.47461 l -6.70117,-6.70117 21.33789,-21.335942 5.37695,5.376953 a 1.75,1.75 0 0 0 2.47461,0 1.75,1.75 0 0 0 0,-2.476562 z"
       id="path31" />
    <path
       style="color:#000000;fill:none;stroke:#000000;stroke-width:0.2;stroke-linecap:round;stroke-dasharray:none"
       d="m 160.96875,101.00977 a 1.75,1.75 0 0 0 -1.23828,0.51367 1.75,1.75 0 0 0 0,2.47461 l 9.34765,9.3457 -21.33789,21.33789 -5.37695,-5.37695 a 1.75,1.75 0 0 0 -2.47656,0 1.75,1.75 0 0 0 0,2.47461 l 7.85351,7.85156 26.28711,-26.28711 -11.82031,-11.82031 a 1.75,1.75 0 0 0 -1.23828,-0.51367 z"
       id="path32" />
  </g>
</svg>
